<svg width="40" height="40" viewBox="0 0 40 40" fill="none" xmlns="http://www.w3.org/2000/svg">
<g clip-path="url(#clip0_3104_1207)">
<path d="M20.0545 -7H19.9338C5.33158 -7 -6.50586 4.83744 -6.50586 19.4397V19.5603C-6.50586 34.1626 5.33158 46 19.9338 46H20.0545C34.6567 46 46.4941 34.1626 46.4941 19.5603V19.4397C46.4941 4.83744 34.6567 -7 20.0545 -7Z" fill="url(#paint0_linear_3104_1207)"/>
</g>
<path d="M24.0192 12H15.6748C13.3695 12 11.4941 13.876 11.4941 16.1819V23.8181C11.4941 26.124 13.3695 28 15.6748 28H24.0192C26.3245 28 28.1999 26.124 28.1999 23.8181V16.1819C28.1999 13.876 26.3245 12 24.0192 12ZM12.969 16.1819C12.969 14.6897 14.183 13.4753 15.6748 13.4753H24.0192C25.511 13.4753 26.7251 14.6897 26.7251 16.1819V23.8181C26.7251 25.3103 25.511 26.5248 24.0192 26.5248H15.6748C14.183 26.5248 12.969 25.3103 12.969 23.8181V16.1819Z" fill="white"/>
<path d="M19.8477 23.8892C21.9915 23.8892 23.7365 22.1446 23.7365 19.9993C23.7365 17.854 21.9924 16.1094 19.8477 16.1094C17.7031 16.1094 15.959 17.854 15.959 19.9993C15.959 22.1446 17.7031 23.8892 19.8477 23.8892ZM19.8477 17.5856C21.179 17.5856 22.2617 18.6686 22.2617 20.0002C22.2617 21.3318 21.179 22.4149 19.8477 22.4149C18.5165 22.4149 17.4338 21.3318 17.4338 20.0002C17.4338 18.6686 18.5165 17.5856 19.8477 17.5856Z" fill="white"/>
<path d="M24.0966 16.7368C24.6739 16.7368 25.1444 16.2671 25.1444 15.6887C25.1444 15.1103 24.6748 14.6406 24.0966 14.6406C23.5184 14.6406 23.0488 15.1103 23.0488 15.6887C23.0488 16.2671 23.5184 16.7368 24.0966 16.7368Z" fill="white"/>
<defs>
<linearGradient id="paint0_linear_3104_1207" x1="1.23719" y1="38.2569" x2="38.7511" y2="0.744912" gradientUnits="userSpaceOnUse">
<stop stop-color="#FAAD4F"/>
<stop offset="0.35" stop-color="#DD2A7B"/>
<stop offset="0.62" stop-color="#9537B0"/>
<stop offset="1" stop-color="#515BD4"/>
</linearGradient>
<clipPath id="clip0_3104_1207">
<rect width="39.9882" height="40" rx="12" fill="white"/>
</clipPath>
</defs>
</svg>
