<svg width="40" height="40" viewBox="0 0 40 40" fill="none" xmlns="http://www.w3.org/2000/svg">
<path d="M6.66732 33.3337C5.75065 33.3337 4.96593 33.0073 4.31315 32.3545C3.66037 31.7017 3.33398 30.917 3.33398 30.0003V10.0003C3.33398 9.08366 3.66037 8.29894 4.31315 7.64616C4.96593 6.99338 5.75065 6.66699 6.66732 6.66699H33.334C34.2506 6.66699 35.0354 6.99338 35.6881 7.64616C36.3409 8.29894 36.6673 9.08366 36.6673 10.0003V30.0003C36.6673 30.917 36.3409 31.7017 35.6881 32.3545C35.0354 33.0073 34.2506 33.3337 33.334 33.3337H6.66732ZM20.0007 21.667L33.334 13.3337V10.0003L20.0007 18.3337L6.66732 10.0003V13.3337L20.0007 21.667Z" fill="black"/>
</svg>
