<svg width="40" height="40" viewBox="0 0 40 40" fill="none" xmlns="http://www.w3.org/2000/svg">
<rect width="39.9882" height="40" rx="12" fill="black"/>
<path d="M39.9868 20.0007C39.9868 30.102 32.5014 38.4529 22.7772 39.808C21.8679 39.9341 20.9377 40 19.9934 40C18.9034 40 17.8331 39.9131 16.7908 39.7449C7.27109 38.2118 0 29.9548 0 20.0007C0 8.95491 8.95227 0 19.9948 0C31.0373 0 39.9896 8.95491 39.9896 20.0007H39.9868Z" fill="#1C1C1B"/>
<path d="M11.5352 12L18.1339 20.8248L11.4941 28H12.9889L18.8026 21.7183L23.4994 28H28.5852L21.6156 18.6788L27.7962 12H26.3014L20.9479 17.7853L16.6221 12H11.5362H11.5352ZM13.7328 13.1011H16.0687L26.3857 26.8989H24.0498L13.7328 13.1011Z" fill="white"/>
</svg>
